STARTFONT 2.1
FONT -Monotype-Book Antiqua-Regular-R-Normal--14-140-75-75-P-69-iso8859-2
SIZE 14 75 75
FONTBOUNDINGBOX 17 20 -1 -5

STARTPROPERTIES 22
FOUNDRY "Monotype"
FAMILY_NAME "Book Antiqua"
WEIGHT_NAME "Regular"
SLANT "R"
SETWIDTH_NAME "Normal"
ADD_STYLE_NAME ""
PIXEL_SIZE 14
POINT_SIZE 140
RESOLUTION_X 75
RESOLUTION_Y 75
SPACING "P"
AVERAGE_WIDTH 69
CHARSET_REGISTRY "iso8859"
CHARSET_ENCODING "2"
COPYRIGHT "Copyright (c) 1996 Monotype Typography Ltd."
CAP_HEIGHT 13
X_HEIGHT 9
WEIGHT 10
QUAD_WIDTH 9
DEFAULT_CHAR 160
FONT_DESCENT 5
FONT_ASCENT 15
ENDPROPERTIES

CHARS 191

STARTCHAR space
ENCODING 32
SWIDTH 250 0
DWIDTH 4 0
BBX 0 0 0 0
BITMAP
ENDCHAR

STARTCHAR exclam
ENCODING 33
SWIDTH 278 0
DWIDTH 4 0
BBX 1 12 2 0
BITMAP
80
80
80
80
80
80
80
80
80
00
80
80
ENDCHAR

STARTCHAR quotedbl
ENCODING 34
SWIDTH 402 0
DWIDTH 6 0
BBX 4 4 1 7
BITMAP
90
90
90
90
ENDCHAR

STARTCHAR numbersign
ENCODING 35
SWIDTH 606 0
DWIDTH 9 0
BBX 10 11 0 0
BITMAP
0900
0900
0900
7FC0
1200
1200
FF80
2400
2400
2400
2400
ENDCHAR

STARTCHAR dollar
ENCODING 36
SWIDTH 500 0
DWIDTH 8 0
BBX 7 13 1 -1
BITMAP
10
3E
52
92
90
50
38
14
12
92
94
F8
10
ENDCHAR

STARTCHAR percent
ENCODING 37
SWIDTH 889 0
DWIDTH 13 0
BBX 9 11 2 0
BITMAP
6200
9200
9400
9400
9800
6B00
1480
1480
2480
2480
4300
ENDCHAR

STARTCHAR ampersand
ENCODING 38
SWIDTH 833 0
DWIDTH 12 0
BBX 10 11 1 0
BITMAP
1800
2400
2400
2800
3000
53C0
8900
8500
8200
4500
38C0
ENDCHAR

STARTCHAR quoteright
ENCODING 39
SWIDTH 278 0
DWIDTH 4 0
BBX 3 4 1 8
BITMAP
60
60
40
80
ENDCHAR

STARTCHAR parenleft
ENCODING 40
SWIDTH 333 0
DWIDTH 5 0
BBX 3 16 1 -4
BITMAP
20
20
40
40
80
80
80
80
80
80
80
80
40
40
20
20
ENDCHAR

STARTCHAR parenright
ENCODING 41
SWIDTH 333 0
DWIDTH 5 0
BBX 3 16 1 -4
BITMAP
80
80
40
40
20
20
20
20
20
20
20
20
40
40
80
80
ENDCHAR

STARTCHAR asterisk
ENCODING 42
SWIDTH 444 0
DWIDTH 6 0
BBX 5 5 1 7
BITMAP
20
A8
70
A8
20
ENDCHAR

STARTCHAR plus
ENCODING 43
SWIDTH 606 0
DWIDTH 9 0
BBX 7 7 1 2
BITMAP
10
10
10
FE
10
10
10
ENDCHAR

STARTCHAR comma
ENCODING 44
SWIDTH 250 0
DWIDTH 4 0
BBX 3 4 0 -2
BITMAP
60
60
40
80
ENDCHAR

STARTCHAR minus
ENCODING 45
SWIDTH 606 0
DWIDTH 9 0
BBX 7 1 1 5
BITMAP
FE
ENDCHAR

STARTCHAR period
ENCODING 46
SWIDTH 250 0
DWIDTH 4 0
BBX 2 2 1 0
BITMAP
C0
C0
ENDCHAR

STARTCHAR slash
ENCODING 47
SWIDTH 296 0
DWIDTH 9 0
BBX 8 16 1 -4
BITMAP
01
01
02
02
04
04
08
08
10
10
20
20
40
40
80
80
ENDCHAR

STARTCHAR zero
ENCODING 48
SWIDTH 500 0
DWIDTH 8 0
BBX 6 11 1 0
BITMAP
30
48
84
84
84
84
84
84
84
48
30
ENDCHAR

STARTCHAR one
ENCODING 49
SWIDTH 500 0
DWIDTH 8 0
BBX 6 11 1 0
BITMAP
10
30
D0
10
10
10
10
10
10
10
7C
ENDCHAR

STARTCHAR two
ENCODING 50
SWIDTH 500 0
DWIDTH 8 0
BBX 6 11 1 0
BITMAP
78
84
84
04
04
08
08
10
20
40
FC
ENDCHAR

STARTCHAR three
ENCODING 51
SWIDTH 500 0
DWIDTH 8 0
BBX 6 11 1 0
BITMAP
70
88
88
08
10
78
0C
04
84
88
70
ENDCHAR

STARTCHAR four
ENCODING 52
SWIDTH 500 0
DWIDTH 8 0
BBX 7 11 1 0
BITMAP
08
18
18
28
28
48
48
FE
08
08
3E
ENDCHAR

STARTCHAR five
ENCODING 53
SWIDTH 500 0
DWIDTH 8 0
BBX 6 11 1 0
BITMAP
FC
80
80
80
F0
88
04
04
84
88
70
ENDCHAR

STARTCHAR six
ENCODING 54
SWIDTH 500 0
DWIDTH 8 0
BBX 6 11 1 0
BITMAP
1C
20
40
40
B8
C4
84
84
84
48
30
ENDCHAR

STARTCHAR seven
ENCODING 55
SWIDTH 500 0
DWIDTH 8 0
BBX 6 11 1 0
BITMAP
FC
84
84
08
08
10
10
20
20
40
40
ENDCHAR

STARTCHAR eight
ENCODING 56
SWIDTH 500 0
DWIDTH 8 0
BBX 6 11 1 0
BITMAP
78
84
84
C4
68
30
58
8C
84
84
78
ENDCHAR

STARTCHAR nine
ENCODING 57
SWIDTH 500 0
DWIDTH 8 0
BBX 6 11 1 0
BITMAP
30
48
84
84
84
8C
74
08
08
10
E0
ENDCHAR

STARTCHAR colon
ENCODING 58
SWIDTH 250 0
DWIDTH 4 0
BBX 2 7 1 0
BITMAP
C0
C0
00
00
00
C0
C0
ENDCHAR

STARTCHAR semicolon
ENCODING 59
SWIDTH 250 0
DWIDTH 4 0
BBX 3 9 0 -2
BITMAP
60
60
00
00
00
60
60
40
80
ENDCHAR

STARTCHAR less
ENCODING 60
SWIDTH 606 0
DWIDTH 9 0
BBX 7 7 1 2
BITMAP
02
0C
30
C0
30
0C
02
ENDCHAR

STARTCHAR equal
ENCODING 61
SWIDTH 606 0
DWIDTH 9 0
BBX 7 3 1 4
BITMAP
FE
00
FE
ENDCHAR

STARTCHAR greater
ENCODING 62
SWIDTH 606 0
DWIDTH 9 0
BBX 7 7 1 2
BITMAP
80
60
18
06
18
60
80
ENDCHAR

STARTCHAR question
ENCODING 63
SWIDTH 444 0
DWIDTH 7 0
BBX 5 12 1 0
BITMAP
70
88
88
08
10
20
40
40
40
00
40
40
ENDCHAR

STARTCHAR at
ENCODING 64
SWIDTH 747 0
DWIDTH 11 0
BBX 11 13 0 -2
BITMAP
0780
1840
2020
4520
4B20
8920
9120
9240
96C0
4B20
4040
3180
0E00
ENDCHAR

STARTCHAR A
ENCODING 65
SWIDTH 778 0
DWIDTH 11 0
BBX 11 11 0 0
BITMAP
0400
0400
0A00
0A00
1100
1100
3F80
2080
4040
4040
E0E0
ENDCHAR

STARTCHAR B
ENCODING 66
SWIDTH 667 0
DWIDTH 9 0
BBX 8 11 1 0
BITMAP
FC
42
42
42
7C
42
41
41
41
42
FC
ENDCHAR

STARTCHAR C
ENCODING 67
SWIDTH 722 0
DWIDTH 11 0
BBX 9 11 1 0
BITMAP
1F80
6080
4080
8000
8000
8000
8000
8000
4000
6180
1E00
ENDCHAR

STARTCHAR D
ENCODING 68
SWIDTH 833 0
DWIDTH 12 0
BBX 9 11 2 0
BITMAP
FC00
4300
4100
4080
4080
4080
4080
4080
4100
4300
FC00
ENDCHAR

STARTCHAR E
ENCODING 69
SWIDTH 611 0
DWIDTH 10 0
BBX 8 11 1 0
BITMAP
FF
41
41
40
44
7C
44
40
41
41
FF
ENDCHAR

STARTCHAR F
ENCODING 70
SWIDTH 556 0
DWIDTH 8 0
BBX 7 11 1 0
BITMAP
FE
42
42
40
44
7C
44
40
40
40
E0
ENDCHAR

STARTCHAR G
ENCODING 71
SWIDTH 833 0
DWIDTH 11 0
BBX 10 11 1 0
BITMAP
1F80
6080
4080
8000
8000
8000
8000
83C0
4080
6080
1F00
ENDCHAR

STARTCHAR H
ENCODING 72
SWIDTH 833 0
DWIDTH 12 0
BBX 10 11 1 0
BITMAP
E1C0
4080
4080
4080
4080
7F80
4080
4080
4080
4080
E1C0
ENDCHAR

STARTCHAR I
ENCODING 73
SWIDTH 389 0
DWIDTH 5 0
BBX 3 11 1 0
BITMAP
E0
40
40
40
40
40
40
40
40
40
E0
ENDCHAR

STARTCHAR J
ENCODING 74
SWIDTH 389 0
DWIDTH 5 0
BBX 3 14 1 -3
BITMAP
E0
40
40
40
40
40
40
40
40
40
40
40
40
80
ENDCHAR

STARTCHAR K
ENCODING 75
SWIDTH 778 0
DWIDTH 11 0
BBX 10 11 1 0
BITMAP
E380
4200
4400
4800
5000
7000
4800
4400
4200
4100
E1C0
ENDCHAR

STARTCHAR L
ENCODING 76
SWIDTH 611 0
DWIDTH 9 0
BBX 8 11 1 0
BITMAP
E0
40
40
40
40
40
40
40
41
41
FF
ENDCHAR

STARTCHAR M
ENCODING 77
SWIDTH 1000 0
DWIDTH 15 0
BBX 13 11 1 0
BITMAP
C018
6030
6030
5050
5050
4890
4890
4510
4510
4210
E238
ENDCHAR

STARTCHAR N
ENCODING 78
SWIDTH 833 0
DWIDTH 12 0
BBX 11 11 1 0
BITMAP
C0E0
6040
5040
4840
4840
4440
4240
4240
4140
40C0
E040
ENDCHAR

STARTCHAR O
ENCODING 79
SWIDTH 833 0
DWIDTH 12 0
BBX 10 11 1 0
BITMAP
1E00
6180
4080
8040
8040
8040
8040
8040
4080
6180
1E00
ENDCHAR

STARTCHAR P
ENCODING 80
SWIDTH 611 0
DWIDTH 9 0
BBX 8 11 1 0
BITMAP
FC
42
41
41
42
5C
40
40
40
40
E0
ENDCHAR

STARTCHAR Q
ENCODING 81
SWIDTH 833 0
DWIDTH 12 0
BBX 11 13 1 -2
BITMAP
1E00
6180
4080
8040
8040
8040
8040
8040
4080
6180
1E00
0F20
11C0
ENDCHAR

STARTCHAR R
ENCODING 82
SWIDTH 722 0
DWIDTH 10 0
BBX 9 11 1 0
BITMAP
FE00
4100
4100
4100
4200
5C00
4800
4400
4200
4100
E180
ENDCHAR

STARTCHAR S
ENCODING 83
SWIDTH 611 0
DWIDTH 9 0
BBX 7 11 1 0
BITMAP
3E
42
82
80
40
38
04
02
82
84
F8
ENDCHAR

STARTCHAR T
ENCODING 84
SWIDTH 667 0
DWIDTH 9 0
BBX 9 11 0 0
BITMAP
FF80
8880
8880
0800
0800
0800
0800
0800
0800
0800
1C00
ENDCHAR

STARTCHAR U
ENCODING 85
SWIDTH 778 0
DWIDTH 12 0
BBX 10 11 1 0
BITMAP
E1C0
4080
4080
4080
4080
4080
4080
4080
4080
2100
1E00
ENDCHAR

STARTCHAR V
ENCODING 86
SWIDTH 778 0
DWIDTH 9 0
BBX 9 11 0 0
BITMAP
E380
4100
4100
2200
2200
2200
1400
1400
0800
0800
0800
ENDCHAR

STARTCHAR W
ENCODING 87
SWIDTH 1000 0
DWIDTH 15 0
BBX 15 11 0 0
BITMAP
E10E
4104
4104
2288
2288
2288
1450
1450
0820
0820
0820
ENDCHAR

STARTCHAR X
ENCODING 88
SWIDTH 667 0
DWIDTH 10 0
BBX 8 11 1 0
BITMAP
C3
42
24
24
18
18
18
24
24
42
C3
ENDCHAR

STARTCHAR Y
ENCODING 89
SWIDTH 667 0
DWIDTH 10 0
BBX 8 11 1 0
BITMAP
C3
22
24
14
18
08
08
08
08
08
1C
ENDCHAR

STARTCHAR Z
ENCODING 90
SWIDTH 667 0
DWIDTH 10 0
BBX 8 11 1 0
BITMAP
FF
82
84
04
08
10
10
20
41
41
FF
ENDCHAR

STARTCHAR bracketleft
ENCODING 91
SWIDTH 333 0
DWIDTH 5 0
BBX 3 16 1 -4
BITMAP
E0
80
80
80
80
80
80
80
80
80
80
80
80
80
80
E0
ENDCHAR

STARTCHAR backslash
ENCODING 92
SWIDTH 606 0
DWIDTH 9 0
BBX 8 16 1 -4
BITMAP
80
40
40
20
20
20
10
10
08
08
08
04
04
02
02
01
ENDCHAR

STARTCHAR bracketright
ENCODING 93
SWIDTH 333 0
DWIDTH 5 0
BBX 3 16 1 -4
BITMAP
E0
20
20
20
20
20
20
20
20
20
20
20
20
20
20
E0
ENDCHAR

STARTCHAR asciicircum
ENCODING 94
SWIDTH 606 0
DWIDTH 9 0
BBX 7 6 1 5
BITMAP
10
10
28
44
44
82
ENDCHAR

STARTCHAR underscore
ENCODING 95
SWIDTH 500 0
DWIDTH 8 0
BBX 8 1 0 -2
BITMAP
FF
ENDCHAR

STARTCHAR quoteleft
ENCODING 96
SWIDTH 278 0
DWIDTH 4 0
BBX 3 4 1 8
BITMAP
20
40
C0
C0
ENDCHAR

STARTCHAR a
ENCODING 97
SWIDTH 500 0
DWIDTH 8 0
BBX 7 7 1 0
BITMAP
78
84
1C
64
84
8C
76
ENDCHAR

STARTCHAR b
ENCODING 98
SWIDTH 611 0
DWIDTH 9 0
BBX 8 12 1 0
BITMAP
40
C0
40
40
40
5C
62
41
41
41
62
5C
ENDCHAR

STARTCHAR c
ENCODING 99
SWIDTH 444 0
DWIDTH 7 0
BBX 6 7 1 0
BITMAP
3C
44
80
80
80
44
38
ENDCHAR

STARTCHAR d
ENCODING 100
SWIDTH 611 0
DWIDTH 9 0
BBX 8 12 1 0
BITMAP
02
06
02
02
02
3A
46
82
82
82
46
3B
ENDCHAR

STARTCHAR e
ENCODING 101
SWIDTH 500 0
DWIDTH 7 0
BBX 6 7 1 0
BITMAP
38
44
84
FC
80
44
38
ENDCHAR

STARTCHAR f
ENCODING 102
SWIDTH 389 0
DWIDTH 5 0
BBX 4 12 1 0
BITMAP
30
40
40
40
40
F0
40
40
40
40
40
E0
ENDCHAR

STARTCHAR g
ENCODING 103
SWIDTH 556 0
DWIDTH 8 0
BBX 7 11 1 -4
BITMAP
3A
44
44
44
38
40
3C
42
82
82
7C
ENDCHAR

STARTCHAR h
ENCODING 104
SWIDTH 611 0
DWIDTH 9 0
BBX 8 12 1 0
BITMAP
40
C0
40
40
40
5C
62
42
42
42
42
E3
ENDCHAR

STARTCHAR i
ENCODING 105
SWIDTH 333 0
DWIDTH 4 0
BBX 3 11 1 0
BITMAP
40
40
00
00
40
C0
40
40
40
40
E0
ENDCHAR

STARTCHAR j
ENCODING 106
SWIDTH 333 0
DWIDTH 4 0
BBX 2 15 1 -4
BITMAP
40
40
00
00
40
C0
40
40
40
40
40
40
40
40
80
ENDCHAR

STARTCHAR k
ENCODING 107
SWIDTH 611 0
DWIDTH 8 0
BBX 7 12 1 0
BITMAP
40
C0
40
40
40
4C
48
50
60
50
48
E6
ENDCHAR

STARTCHAR l
ENCODING 108
SWIDTH 333 0
DWIDTH 4 0
BBX 3 12 1 0
BITMAP
40
C0
40
40
40
40
40
40
40
40
40
E0
ENDCHAR

STARTCHAR m
ENCODING 109
SWIDTH 889 0
DWIDTH 12 0
BBX 11 7 1 0
BITMAP
5B80
E440
4440
4440
4440
4440
EE60
ENDCHAR

STARTCHAR n
ENCODING 110
SWIDTH 611 0
DWIDTH 9 0
BBX 8 7 1 0
BITMAP
5C
E2
42
42
42
42
E3
ENDCHAR

STARTCHAR o
ENCODING 111
SWIDTH 556 0
DWIDTH 8 0
BBX 7 7 1 0
BITMAP
38
44
82
82
82
44
38
ENDCHAR

STARTCHAR p
ENCODING 112
SWIDTH 611 0
DWIDTH 9 0
BBX 8 11 1 -4
BITMAP
5C
E2
41
41
41
62
5C
40
40
40
E0
ENDCHAR

STARTCHAR q
ENCODING 113
SWIDTH 611 0
DWIDTH 9 0
BBX 8 11 1 -4
BITMAP
3A
46
82
82
82
46
3A
02
02
02
07
ENDCHAR

STARTCHAR r
ENCODING 114
SWIDTH 389 0
DWIDTH 6 0
BBX 5 7 1 0
BITMAP
58
E8
40
40
40
40
E0
ENDCHAR

STARTCHAR s
ENCODING 115
SWIDTH 444 0
DWIDTH 6 0
BBX 5 7 1 0
BITMAP
78
88
80
70
08
88
F0
ENDCHAR

STARTCHAR t
ENCODING 116
SWIDTH 333 0
DWIDTH 5 0
BBX 4 10 1 0
BITMAP
40
40
40
F0
40
40
40
40
40
30
ENDCHAR

STARTCHAR u
ENCODING 117
SWIDTH 611 0
DWIDTH 9 0
BBX 8 7 1 0
BITMAP
42
C6
42
42
42
46
3B
ENDCHAR

STARTCHAR v
ENCODING 118
SWIDTH 556 0
DWIDTH 8 0
BBX 7 7 1 0
BITMAP
EE
44
44
28
28
10
10
ENDCHAR

STARTCHAR w
ENCODING 119
SWIDTH 833 0
DWIDTH 12 0
BBX 11 7 1 0
BITMAP
E4E0
4440
4440
2A80
2A80
1100
1100
ENDCHAR

STARTCHAR x
ENCODING 120
SWIDTH 500 0
DWIDTH 8 0
BBX 7 7 1 0
BITMAP
C6
44
28
10
28
44
C6
ENDCHAR

STARTCHAR y
ENCODING 121
SWIDTH 556 0
DWIDTH 8 0
BBX 7 11 1 -4
BITMAP
EE
44
44
28
28
10
10
10
20
20
C0
ENDCHAR

STARTCHAR z
ENCODING 122
SWIDTH 500 0
DWIDTH 7 0
BBX 6 7 1 0
BITMAP
FC
88
10
10
20
44
FC
ENDCHAR

STARTCHAR braceleft
ENCODING 123
SWIDTH 310 0
DWIDTH 5 0
BBX 5 16 0 -4
BITMAP
18
20
20
20
20
20
20
C0
C0
20
20
20
20
20
20
18
ENDCHAR

STARTCHAR bar
ENCODING 124
SWIDTH 606 0
DWIDTH 9 0
BBX 1 16 4 -4
BITMAP
80
80
80
80
80
80
80
80
80
80
80
80
80
80
80
80
ENDCHAR

STARTCHAR braceright
ENCODING 125
SWIDTH 310 0
DWIDTH 5 0
BBX 5 16 0 -4
BITMAP
C0
20
20
20
20
20
20
18
18
20
20
20
20
20
20
C0
ENDCHAR

STARTCHAR asciitilde
ENCODING 126
SWIDTH 606 0
DWIDTH 9 0
BBX 7 2 1 4
BITMAP
72
9C
ENDCHAR

STARTCHAR space
ENCODING 160
SWIDTH 250 0
DWIDTH 5 0
BBX 0 0 0 0
BITMAP
ENDCHAR

STARTCHAR Aogonek
ENCODING 161
SWIDTH 778 0
DWIDTH 11 0
BBX 11 13 0 -2
BITMAP
0400
0400
0A00
0A00
1100
1100
3F80
2080
4040
4040
E0E0
0080
0060
ENDCHAR

STARTCHAR breve
ENCODING 162
SWIDTH 333 0
DWIDTH 5 0
BBX 5 2 0 8
BITMAP
88
70
ENDCHAR

STARTCHAR Lslash
ENCODING 163
SWIDTH 611 0
DWIDTH 9 0
BBX 8 11 1 0
BITMAP
E0
40
40
40
50
60
40
C0
41
41
FF
ENDCHAR

STARTCHAR currency
ENCODING 164
SWIDTH 606 0
DWIDTH 9 0
BBX 8 8 1 1
BITMAP
BD
42
81
81
81
81
42
BD
ENDCHAR

STARTCHAR Lcaron
ENCODING 165
SWIDTH 611 0
DWIDTH 9 0
BBX 8 11 1 0
BITMAP
E6
46
44
48
40
40
40
40
41
41
FF
ENDCHAR

STARTCHAR Sacute
ENCODING 166
SWIDTH 611 0
DWIDTH 9 0
BBX 7 14 1 0
BITMAP
0C
10
00
3E
42
82
80
40
38
04
02
82
84
F8
ENDCHAR

STARTCHAR section
ENCODING 167
SWIDTH 500 0
DWIDTH 8 0
BBX 6 16 1 -4
BITMAP
3C
44
80
80
70
88
88
84
44
44
24
18
04
04
88
F0
ENDCHAR

STARTCHAR dieresis
ENCODING 168
SWIDTH 333 0
DWIDTH 5 0
BBX 5 2 0 8
BITMAP
D8
D8
ENDCHAR

STARTCHAR Scaron
ENCODING 169
SWIDTH 611 0
DWIDTH 9 0
BBX 7 14 1 0
BITMAP
24
18
00
3E
42
82
80
40
38
04
02
82
84
F8
ENDCHAR

STARTCHAR Scommaaccent
ENCODING 170
SWIDTH 611 0
DWIDTH 9 0
BBX 7 16 1 -5
BITMAP
3E
42
82
80
40
38
04
02
82
84
F8
00
30
30
20
40
ENDCHAR

STARTCHAR Tcaron
ENCODING 171
SWIDTH 667 0
DWIDTH 9 0
BBX 9 14 0 0
BITMAP
1200
0C00
0000
FF80
8880
8880
0800
0800
0800
0800
0800
0800
0800
1C00
ENDCHAR

STARTCHAR Zacute
ENCODING 172
SWIDTH 667 0
DWIDTH 10 0
BBX 8 14 1 0
BITMAP
0C
10
00
FF
82
84
04
08
10
10
20
41
41
FF
ENDCHAR

STARTCHAR hyphen
ENCODING 173
SWIDTH 333 0
DWIDTH 5 0
BBX 5 1 0 3
BITMAP
F8
ENDCHAR

STARTCHAR Zcaron
ENCODING 174
SWIDTH 667 0
DWIDTH 10 0
BBX 8 14 1 0
BITMAP
24
18
00
FF
82
84
04
08
10
10
20
41
41
FF
ENDCHAR

STARTCHAR Zdotaccent
ENCODING 175
SWIDTH 667 0
DWIDTH 10 0
BBX 8 14 1 0
BITMAP
18
18
00
FF
82
84
04
08
10
10
20
41
41
FF
ENDCHAR

STARTCHAR degree
ENCODING 176
SWIDTH 396 0
DWIDTH 6 0
BBX 5 5 1 6
BITMAP
70
88
88
88
70
ENDCHAR

STARTCHAR aogonek
ENCODING 177
SWIDTH 500 0
DWIDTH 8 0
BBX 8 9 1 -2
BITMAP
78
84
1C
64
84
8C
76
04
03
ENDCHAR

STARTCHAR ogonek
ENCODING 178
SWIDTH 333 0
DWIDTH 5 0
BBX 3 2 1 -2
BITMAP
80
60
ENDCHAR

STARTCHAR lslash
ENCODING 179
SWIDTH 333 0
DWIDTH 4 0
BBX 5 12 0 0
BITMAP
20
60
20
28
30
20
60
A0
20
20
20
70
ENDCHAR

STARTCHAR acute
ENCODING 180
SWIDTH 333 0
DWIDTH 5 0
BBX 3 2 2 8
BITMAP
60
80
ENDCHAR

STARTCHAR lcaron
ENCODING 181
SWIDTH 449 0
DWIDTH 5 0
BBX 5 12 1 0
BITMAP
58
D8
50
60
40
40
40
40
40
40
40
E0
ENDCHAR

STARTCHAR sacute
ENCODING 182
SWIDTH 444 0
DWIDTH 6 0
BBX 5 10 1 0
BITMAP
18
20
00
78
88
80
70
08
88
F0
ENDCHAR

STARTCHAR caron
ENCODING 183
SWIDTH 333 0
DWIDTH 5 0
BBX 4 2 1 8
BITMAP
90
60
ENDCHAR

STARTCHAR commaaccent
ENCODING 184
SWIDTH 333 0
DWIDTH 5 0
BBX 3 4 1 -5
BITMAP
60
60
40
80
ENDCHAR

STARTCHAR scaron
ENCODING 185
SWIDTH 444 0
DWIDTH 6 0
BBX 5 10 1 0
BITMAP
48
30
00
78
88
80
70
08
88
F0
ENDCHAR

STARTCHAR scommaaccent
ENCODING 186
SWIDTH 444 0
DWIDTH 6 0
BBX 5 12 1 -5
BITMAP
78
88
80
70
08
88
F0
00
60
60
40
80
ENDCHAR

STARTCHAR tcaron
ENCODING 187
SWIDTH 420 0
DWIDTH 5 0
BBX 5 11 1 0
BITMAP
18
58
50
60
F0
40
40
40
40
40
30
ENDCHAR

STARTCHAR zacute
ENCODING 188
SWIDTH 500 0
DWIDTH 7 0
BBX 6 10 1 0
BITMAP
18
20
00
FC
88
10
10
20
44
FC
ENDCHAR

STARTCHAR hungarumlaut
ENCODING 189
SWIDTH 333 0
DWIDTH 6 0
BBX 7 2 0 8
BITMAP
66
88
ENDCHAR

STARTCHAR zcaron
ENCODING 190
SWIDTH 500 0
DWIDTH 7 0
BBX 6 10 1 0
BITMAP
48
30
00
FC
88
10
10
20
44
FC
ENDCHAR

STARTCHAR zdotaccent
ENCODING 191
SWIDTH 500 0
DWIDTH 7 0
BBX 6 10 1 0
BITMAP
30
30
00
FC
88
10
10
20
44
FC
ENDCHAR

STARTCHAR Racute
ENCODING 192
SWIDTH 722 0
DWIDTH 10 0
BBX 9 14 1 0
BITMAP
0C00
1000
0000
FE00
4100
4100
4100
4200
5C00
4800
4400
4200
4100
E180
ENDCHAR

STARTCHAR Aacute
ENCODING 193
SWIDTH 778 0
DWIDTH 11 0
BBX 11 14 0 0
BITMAP
0300
0400
0000
0400
0400
0A00
0A00
1100
1100
3F80
2080
4040
4040
E0E0
ENDCHAR

STARTCHAR Acircumflex
ENCODING 194
SWIDTH 778 0
DWIDTH 11 0
BBX 11 14 0 0
BITMAP
0600
0900
0000
0400
0400
0A00
0A00
1100
1100
3F80
2080
4040
4040
E0E0
ENDCHAR

STARTCHAR Abreve
ENCODING 195
SWIDTH 778 0
DWIDTH 11 0
BBX 11 14 0 0
BITMAP
1100
0E00
0000
0400
0400
0A00
0A00
1100
1100
3F80
2080
4040
4040
E0E0
ENDCHAR

STARTCHAR Adieresis
ENCODING 196
SWIDTH 778 0
DWIDTH 11 0
BBX 11 14 0 0
BITMAP
1B00
1B00
0000
0400
0400
0A00
0A00
1100
1100
3F80
2080
4040
4040
E0E0
ENDCHAR

STARTCHAR Lacute
ENCODING 197
SWIDTH 611 0
DWIDTH 9 0
BBX 8 14 1 0
BITMAP
18
20
00
E0
40
40
40
40
40
40
40
41
41
FF
ENDCHAR

STARTCHAR Cacute
ENCODING 198
SWIDTH 722 0
DWIDTH 11 0
BBX 9 14 1 0
BITMAP
0300
0400
0000
1F80
6080
4080
8000
8000
8000
8000
8000
4000
6180
1E00
ENDCHAR

STARTCHAR Ccedilla
ENCODING 199
SWIDTH 722 0
DWIDTH 11 0
BBX 9 14 1 -3
BITMAP
1F80
6080
4080
8000
8000
8000
8000
8000
4000
6180
1E00
0800
0400
1800
ENDCHAR

STARTCHAR Ccaron
ENCODING 200
SWIDTH 722 0
DWIDTH 11 0
BBX 9 14 1 0
BITMAP
0900
0600
0000
1F80
6080
4080
8000
8000
8000
8000
8000
4000
6180
1E00
ENDCHAR

STARTCHAR Eacute
ENCODING 201
SWIDTH 611 0
DWIDTH 10 0
BBX 8 14 1 0
BITMAP
0C
10
00
FF
41
41
40
44
7C
44
40
41
41
FF
ENDCHAR

STARTCHAR Eogonek
ENCODING 202
SWIDTH 611 0
DWIDTH 10 0
BBX 8 13 1 -2
BITMAP
FF
41
41
40
44
7C
44
40
41
41
FF
04
03
ENDCHAR

STARTCHAR Edieresis
ENCODING 203
SWIDTH 611 0
DWIDTH 10 0
BBX 8 14 1 0
BITMAP
36
36
00
FF
41
41
40
44
7C
44
40
41
41
FF
ENDCHAR

STARTCHAR Ecaron
ENCODING 204
SWIDTH 611 0
DWIDTH 10 0
BBX 8 14 1 0
BITMAP
24
18
00
FF
41
41
40
44
7C
44
40
41
41
FF
ENDCHAR

STARTCHAR Iacute
ENCODING 205
SWIDTH 389 0
DWIDTH 5 0
BBX 4 14 1 0
BITMAP
30
40
00
E0
40
40
40
40
40
40
40
40
40
E0
ENDCHAR

STARTCHAR Icircumflex
ENCODING 206
SWIDTH 389 0
DWIDTH 5 0
BBX 4 14 1 0
BITMAP
60
90
00
E0
40
40
40
40
40
40
40
40
40
E0
ENDCHAR

STARTCHAR Dcaron
ENCODING 207
SWIDTH 833 0
DWIDTH 12 0
BBX 9 14 2 0
BITMAP
2400
1800
0000
FC00
4300
4100
4080
4080
4080
4080
4080
4100
4300
FC00
ENDCHAR

STARTCHAR Dcroat
ENCODING 208
SWIDTH 833 0
DWIDTH 12 0
BBX 9 11 2 0
BITMAP
FC00
4300
4100
4080
4080
F880
4080
4080
4100
4300
FC00
ENDCHAR

STARTCHAR Nacute
ENCODING 209
SWIDTH 833 0
DWIDTH 12 0
BBX 11 14 1 0
BITMAP
0600
0800
0000
C0E0
6040
5040
4840
4840
4440
4240
4240
4140
40C0
E040
ENDCHAR

STARTCHAR Ncaron
ENCODING 210
SWIDTH 833 0
DWIDTH 12 0
BBX 11 14 1 0
BITMAP
1200
0C00
0000
C0E0
6040
5040
4840
4840
4440
4240
4240
4140
40C0
E040
ENDCHAR

STARTCHAR Oacute
ENCODING 211
SWIDTH 833 0
DWIDTH 12 0
BBX 10 14 1 0
BITMAP
0600
0800
0000
1E00
6180
4080
8040
8040
8040
8040
8040
4080
6180
1E00
ENDCHAR

STARTCHAR Ocircumflex
ENCODING 212
SWIDTH 833 0
DWIDTH 12 0
BBX 10 14 1 0
BITMAP
0C00
1200
0000
1E00
6180
4080
8040
8040
8040
8040
8040
4080
6180
1E00
ENDCHAR

STARTCHAR Ohungarumlaut
ENCODING 213
SWIDTH 833 0
DWIDTH 12 0
BBX 10 14 1 0
BITMAP
1980
2200
0000
1E00
6180
4080
8040
8040
8040
8040
8040
4080
6180
1E00
ENDCHAR

STARTCHAR Odieresis
ENCODING 214
SWIDTH 833 0
DWIDTH 12 0
BBX 10 14 1 0
BITMAP
1B00
1B00
0000
1E00
6180
4080
8040
8040
8040
8040
8040
4080
6180
1E00
ENDCHAR

STARTCHAR multiply
ENCODING 215
SWIDTH 606 0
DWIDTH 9 0
BBX 5 6 2 2
BITMAP
88
50
20
20
50
88
ENDCHAR

STARTCHAR Rcaron
ENCODING 216
SWIDTH 722 0
DWIDTH 10 0
BBX 9 14 1 0
BITMAP
2400
1800
0000
FE00
4100
4100
4100
4200
5C00
4800
4400
4200
4100
E180
ENDCHAR

STARTCHAR Uring
ENCODING 217
SWIDTH 778 0
DWIDTH 12 0
BBX 10 15 1 0
BITMAP
0400
0A00
0400
0000
E1C0
4080
4080
4080
4080
4080
4080
4080
4080
2100
1E00
ENDCHAR

STARTCHAR Uacute
ENCODING 218
SWIDTH 778 0
DWIDTH 12 0
BBX 10 14 1 0
BITMAP
0600
0800
0000
E1C0
4080
4080
4080
4080
4080
4080
4080
4080
2100
1E00
ENDCHAR

STARTCHAR Uhungarumlaut
ENCODING 219
SWIDTH 778 0
DWIDTH 12 0
BBX 10 14 1 0
BITMAP
1980
2200
0000
E1C0
4080
4080
4080
4080
4080
4080
4080
4080
2100
1E00
ENDCHAR

STARTCHAR Udieresis
ENCODING 220
SWIDTH 778 0
DWIDTH 12 0
BBX 10 14 1 0
BITMAP
1B00
1B00
0000
E1C0
4080
4080
4080
4080
4080
4080
4080
4080
2100
1E00
ENDCHAR

STARTCHAR Yacute
ENCODING 221
SWIDTH 667 0
DWIDTH 10 0
BBX 8 14 1 0
BITMAP
0C
10
00
C3
22
24
14
18
08
08
08
08
08
1C
ENDCHAR

STARTCHAR Tcommaaccent
ENCODING 222
SWIDTH 667 0
DWIDTH 9 0
BBX 9 16 0 -5
BITMAP
FF80
8880
8880
0800
0800
0800
0800
0800
0800
0800
1C00
0000
1800
1800
1000
2000
ENDCHAR

STARTCHAR germandbls
ENCODING 223
SWIDTH 611 0
DWIDTH 8 0
BBX 7 12 1 0
BITMAP
1C
22
42
42
CC
50
48
44
42
42
52
CC
ENDCHAR

STARTCHAR racute
ENCODING 224
SWIDTH 389 0
DWIDTH 6 0
BBX 5 10 1 0
BITMAP
18
20
00
58
E8
40
40
40
40
E0
ENDCHAR

STARTCHAR aacute
ENCODING 225
SWIDTH 500 0
DWIDTH 8 0
BBX 7 10 1 0
BITMAP
18
20
00
78
84
1C
64
84
8C
76
ENDCHAR

STARTCHAR acircumflex
ENCODING 226
SWIDTH 500 0
DWIDTH 8 0
BBX 7 10 1 0
BITMAP
30
48
00
78
84
1C
64
84
8C
76
ENDCHAR

STARTCHAR abreve
ENCODING 227
SWIDTH 500 0
DWIDTH 8 0
BBX 7 10 1 0
BITMAP
44
38
00
78
84
1C
64
84
8C
76
ENDCHAR

STARTCHAR adieresis
ENCODING 228
SWIDTH 500 0
DWIDTH 8 0
BBX 7 10 1 0
BITMAP
6C
6C
00
78
84
1C
64
84
8C
76
ENDCHAR

STARTCHAR lacute
ENCODING 229
SWIDTH 333 0
DWIDTH 4 0
BBX 3 15 1 0
BITMAP
60
80
00
40
C0
40
40
40
40
40
40
40
40
40
E0
ENDCHAR

STARTCHAR cacute
ENCODING 230
SWIDTH 444 0
DWIDTH 7 0
BBX 6 10 1 0
BITMAP
0C
10
00
3C
44
80
80
80
44
38
ENDCHAR

STARTCHAR ccedilla
ENCODING 231
SWIDTH 444 0
DWIDTH 7 0
BBX 6 10 1 -3
BITMAP
3C
44
80
80
80
44
38
10
08
30
ENDCHAR

STARTCHAR ccaron
ENCODING 232
SWIDTH 444 0
DWIDTH 7 0
BBX 6 10 1 0
BITMAP
24
18
00
3C
44
80
80
80
44
38
ENDCHAR

STARTCHAR eacute
ENCODING 233
SWIDTH 500 0
DWIDTH 7 0
BBX 6 10 1 0
BITMAP
0C
10
00
38
44
84
FC
80
44
38
ENDCHAR

STARTCHAR eogonek
ENCODING 234
SWIDTH 500 0
DWIDTH 7 0
BBX 6 9 1 -2
BITMAP
38
44
84
FC
80
44
38
10
0C
ENDCHAR

STARTCHAR edieresis
ENCODING 235
SWIDTH 500 0
DWIDTH 7 0
BBX 6 10 1 0
BITMAP
6C
6C
00
38
44
84
FC
80
44
38
ENDCHAR

STARTCHAR ecaron
ENCODING 236
SWIDTH 500 0
DWIDTH 7 0
BBX 6 10 1 0
BITMAP
48
30
00
38
44
84
FC
80
44
38
ENDCHAR

STARTCHAR iacute
ENCODING 237
SWIDTH 333 0
DWIDTH 4 0
BBX 4 10 1 0
BITMAP
30
40
00
40
C0
40
40
40
40
E0
ENDCHAR

STARTCHAR icircumflex
ENCODING 238
SWIDTH 333 0
DWIDTH 4 0
BBX 4 10 1 0
BITMAP
60
90
00
40
C0
40
40
40
40
E0
ENDCHAR

STARTCHAR dcaron
ENCODING 239
SWIDTH 738 0
DWIDTH 10 0
BBX 10 12 1 0
BITMAP
02C0
06C0
0280
0300
0200
3A00
4600
8200
8200
8200
4600
3B00
ENDCHAR

STARTCHAR dcroat
ENCODING 240
SWIDTH 611 0
DWIDTH 9 0
BBX 8 12 1 0
BITMAP
02
0F
02
02
02
3A
46
82
82
82
46
3B
ENDCHAR

STARTCHAR nacute
ENCODING 241
SWIDTH 611 0
DWIDTH 9 0
BBX 8 10 1 0
BITMAP
0C
10
00
5C
E2
42
42
42
42
E3
ENDCHAR

STARTCHAR ncaron
ENCODING 242
SWIDTH 611 0
DWIDTH 9 0
BBX 8 10 1 0
BITMAP
24
18
00
5C
E2
42
42
42
42
E3
ENDCHAR

STARTCHAR oacute
ENCODING 243
SWIDTH 556 0
DWIDTH 8 0
BBX 7 10 1 0
BITMAP
18
20
00
38
44
82
82
82
44
38
ENDCHAR

STARTCHAR ocircumflex
ENCODING 244
SWIDTH 556 0
DWIDTH 8 0
BBX 7 10 1 0
BITMAP
18
24
00
38
44
82
82
82
44
38
ENDCHAR

STARTCHAR ohungarumlaut
ENCODING 245
SWIDTH 556 0
DWIDTH 8 0
BBX 7 10 1 0
BITMAP
66
88
00
38
44
82
82
82
44
38
ENDCHAR

STARTCHAR odieresis
ENCODING 246
SWIDTH 556 0
DWIDTH 8 0
BBX 7 10 1 0
BITMAP
6C
6C
00
38
44
82
82
82
44
38
ENDCHAR

STARTCHAR divide
ENCODING 247
SWIDTH 606 0
DWIDTH 9 0
BBX 8 7 1 2
BITMAP
18
18
00
FF
00
18
18
ENDCHAR

STARTCHAR rcaron
ENCODING 248
SWIDTH 389 0
DWIDTH 6 0
BBX 5 10 1 0
BITMAP
48
30
00
58
E8
40
40
40
40
E0
ENDCHAR

STARTCHAR uring
ENCODING 249
SWIDTH 611 0
DWIDTH 9 0
BBX 8 11 1 0
BITMAP
08
14
08
00
42
C6
42
42
42
46
3B
ENDCHAR

STARTCHAR uacute
ENCODING 250
SWIDTH 611 0
DWIDTH 9 0
BBX 8 10 1 0
BITMAP
0C
10
00
42
C6
42
42
42
46
3B
ENDCHAR

STARTCHAR uhungarumlaut
ENCODING 251
SWIDTH 611 0
DWIDTH 9 0
BBX 8 10 1 0
BITMAP
33
44
00
42
C6
42
42
42
46
3B
ENDCHAR

STARTCHAR udieresis
ENCODING 252
SWIDTH 611 0
DWIDTH 9 0
BBX 8 10 1 0
BITMAP
36
36
00
42
C6
42
42
42
46
3B
ENDCHAR

STARTCHAR yacute
ENCODING 253
SWIDTH 556 0
DWIDTH 8 0
BBX 7 14 1 -4
BITMAP
0C
10
00
EE
44
44
28
28
10
10
10
20
20
C0
ENDCHAR

STARTCHAR tcommaaccent
ENCODING 254
SWIDTH 333 0
DWIDTH 5 0
BBX 4 15 1 -5
BITMAP
40
40
40
F0
40
40
40
40
40
30
00
60
60
40
80
ENDCHAR

STARTCHAR dotaccent
ENCODING 255
SWIDTH 333 0
DWIDTH 4 0
BBX 2 2 1 8
BITMAP
C0
C0
ENDCHAR
ENDFONT
